Coordinates
version=1
nRows=14
nColumns=40
inDegrees=yes

Units are S.I. units (second, meters, Newtons, ...)
Angles are in degrees.

endheader
time	pelvis_tilt	pelvis_list	pelvis_rotation	pelvis_tx	pelvis_ty	pelvis_tz	hip_flexion_r	hip_adduction_r	hip_rotation_r	knee_angle_r	knee_angle_r_beta	ankle_angle_r	subtalar_angle_r	mtp_angle_r	hip_flexion_l	hip_adduction_l	hip_rotation_l	knee_angle_l	knee_angle_l_beta	ankle_angle_l	subtalar_angle_l	mtp_angle_l	lumbar_extension	lumbar_bending	lumbar_rotation	arm_flex_r	arm_add_r	arm_rot_r	elbow_flex_r	pro_sup_r	wrist_flex_r	wrist_dev_r	arm_flex_l	arm_add_l	arm_rot_l	elbow_flex_l	pro_sup_l	wrist_flex_l	wrist_dev_l
      0.54000000	     -3.75023191	     -2.19259046	      6.21790674	     -0.49199189	      0.88309569	     -1.01835056	     21.50748457	      1.47634560	    -18.75001855	    -26.09624481	     -0.45546539	      5.71433821	     -7.87079365	      5.74523455	     10.19063234	      9.44806165	      2.44684431	    -59.28963501	     -1.03479934	    -15.64260956	     15.37489028	      1.98370155	     -1.11411713	      0.83161418	     -7.38051839	     -4.56181274	     -8.49843259	    -15.61971837	     26.33617142	     89.95437384	      0.00000000	      0.00000000	     -0.19662624	     10.97851773	     21.02351169	     39.73696171	     89.95437384	      0.00000000	      0.00000000
      0.55000000	     -3.62619990	     -2.14848263	      5.84935626	     -0.48316994	      0.88395100	     -1.01684014	     20.57422193	      1.72476496	    -18.61537500	    -25.80205044	     -0.45033073	      6.20898150	     -7.49234113	      5.60455237	     11.46641568	      9.21861110	      2.29637290	    -61.08492743	     -1.06613311	    -14.87308459	     16.15924606	      2.40960644	     -1.39020140	      0.89245057	     -6.76649106	     -4.32627887	     -8.80860874	    -15.05664848	     26.87968641	     89.95437384	      0.00000000	      0.00000000	     -0.31425950	     10.69878953	     20.97469001	     38.76768142	     89.95437384	      0.00000000	      0.00000000
      0.56000000	     -3.44455760	     -1.77028773	      5.36602666	     -0.47425127	      0.88501353	     -1.01544257	     19.60423920	      1.55523889	    -18.65202621	    -25.65009302	     -0.44767858	      6.44700531	     -7.26370269	      5.47329979	     12.52630023	      8.69165719	      2.46759693	    -62.52270484	     -1.09122706	    -14.58107430	     16.01338399	      2.45317036	     -1.78015671	      0.56513699	     -6.08802261	     -3.95049954	     -9.02721301	    -14.80019468	     27.28513305	     89.95437384	      0.00000000	      0.00000000	     -0.66342942	     10.43557205	     20.92490842	     38.20786668	     89.95437384	      0.00000000	      0.00000000
      0.57000000	     -3.32618351	     -1.84685765	      5.13695414	     -0.46538924	      0.88597887	     -1.01424002	     18.55190847	      1.94034749	    -18.35392713	    -25.11822539	     -0.43839574	      7.19486230	     -6.61628807	      5.23037856	     13.81676319	      8.51958897	      2.20339142	    -63.95149859	     -1.11616421	    -13.34017421	     16.66504796	      2.78179404	     -1.95723191	      0.76585663	     -5.61450079	     -3.71216615	     -9.43048387	    -14.14844757	     27.81463330	     89.95437384	      0.00000000	      0.00000000	     -0.61122392	     10.13700126	     20.93541005	     36.74339889	     89.95437384	      0.00000000	      0.00000000
      0.58000000	     -3.20066850	     -1.57534507	      4.68821009	     -0.45688306	      0.88701142	     -1.01281070	     17.66479177	      1.86310595	    -18.29919895	    -24.90803857	     -0.43472728	      7.41964539	     -6.29656629	      5.07795303	     15.00291791	      8.08227398	      2.37599082	    -65.05638275	     -1.13544808	    -12.74000489	     16.39627888	      2.84167009	     -2.28145904	      0.53621612	     -4.98547975	     -3.29346237	     -9.68325672	    -13.83240457	     28.21562808	     89.95437384	      0.00000000	      0.00000000	     -0.91830232	      9.89912998	     20.91668350	     36.12327966	     89.95437384	      0.00000000	      0.00000000
      0.59000000	     -3.10992441	     -1.71977740	      4.29475799	     -0.44789334	      0.88787563	     -1.01141813	     16.64277020	      2.29679693	    -18.13575435	    -24.34192375	     -0.42484672	      8.07202812	     -5.42846790	      4.72264774	     16.21666300	      8.16343233	      2.54575464	    -66.13971324	     -1.15435576	    -10.59301026	     16.44031695	      3.60143616	     -2.41633947	      0.77801061	     -4.46065018	     -3.14708070	    -10.13247831	    -12.91280029	     28.97662189	     89.95437384	      0.00000000	      0.00000000	     -1.08455356	      9.51687530	     21.26402352	     34.94550108	     89.95437384	      0.00000000	      0.00000000
      0.60000000	     -3.04236561	     -1.39761615	      3.91124468	     -0.43947173	      0.88886792	     -1.01035423	     15.79718840	      2.10455511	    -18.11243093	    -24.09821857	     -0.42059326	      8.30135592	     -5.27472666	      4.59020118	     17.42134400	      7.60525414	      2.74638207	    -66.79740004	     -1.16583456	     -9.76967123	     16.12605930	      3.56205295	     -2.65994583	      0.49040336	     -3.89221457	     -2.62990827	    -10.38365587	    -12.76865435	     29.10905518	     89.95437384	      0.00000000	      0.00000000	     -1.42075801	      9.29225651	     21.17307040	     34.34408235	     89.95437384	      0.00000000	      0.00000000
      0.61000000	     -3.07122400	     -1.22785330	      3.55007488	     -0.43089498	      0.88969797	     -1.00927515	     14.93634517	      2.15143956	    -17.79998216	    -23.59174680	     -0.41175366	      8.78786176	     -4.83209886	      4.38281195	     18.64458799	      7.21781482	      2.97341659	    -67.29471147	     -1.17451428	     -7.38831449	     16.27030162	      3.49772103	     -2.68458057	      0.36437499	     -3.41875491	     -2.14000633	    -10.61994798	    -12.55051447	     29.26237514	     89.95437384	      0.00000000	      0.00000000	     -1.60799216	      9.04675739	     21.15996626	     33.18385609	     89.95437384	      0.00000000	      0.00000000
      0.62000000	     -3.07259983	     -1.07308140	      3.05791770	     -0.42226956	      0.89053602	     -1.00824288	     14.06735867	      2.19597828	    -17.53385269	    -23.12558130	     -0.40361754	      9.09888110	     -4.24451544	      4.15504679	     19.74862388	      6.88132716	      3.36334628	    -67.50115252	     -1.17811736	     -5.25129553	     16.33810169	      3.51282090	     -2.76140883	      0.29144386	     -2.82988802	     -1.76998508	    -10.94575394	    -12.32566995	     29.66050206	     89.95437384	      0.00000000	      0.00000000	     -1.89420190	      8.75495763	     21.25824108	     32.23173513	     89.95437384	      0.00000000	      0.00000000
      0.63000000	     -3.02498123	     -0.95486706	      2.58055967	     -0.41372848	      0.89132736	     -1.00698788	     13.22536633	      2.25682235	    -17.37469663	    -22.76074836	     -0.39725000	      9.33005393	     -3.74947603	      3.92893721	     20.84118541	      6.69927587	      3.86519704	    -67.54596674	     -1.17889952	     -3.67198931	     16.61852908	      3.64020513	     -2.90002805	      0.20328078	     -2.25890968	     -1.37724446	    -11.17064049	    -12.19627739	     30.05482502	     89.95437384	      0.00000000	      0.00000000	     -2.20559990	      8.50857802	     21.28886301	     31.38224466	     89.95437384	      0.00000000	      0.00000000
      0.64000000	     -3.05251270	     -0.74850718	      2.24751466	     -0.40525584	      0.89189089	     -1.00596059	     12.48019800	      2.15686668	    -17.50232229	    -22.44407751	     -0.39172305	      9.54027609	     -3.65002141	      3.81538339	     22.03898054	      6.50257089	      4.50408460	    -67.32543013	     -1.17505043	     -3.02878881	     16.69838163	      3.68109427	     -2.96832799	      0.01834476	     -1.91930884	     -0.94225472	    -11.33301164	    -12.16464384	     30.45301715	     89.95437384	      0.00000000	      0.00000000	     -2.69043685	      8.33638373	     21.23254687	     30.82117493	     89.95437384	      0.00000000	      0.00000000
      0.65000000	     -3.03660162	     -0.64413306	      1.80296550	     -0.39665886	      0.89251920	     -1.00487387	     11.66580458	      2.23115441	    -17.21141100	    -22.04734528	     -0.38479877	      9.82865323	     -3.28820834	      3.64149127	     23.04941135	      6.34553214	      5.05079898	    -66.86131720	     -1.16695013	     -1.88920015	     17.34536803	      3.86947509	     -3.04960583	     -0.04633852	     -1.41204411	     -0.60201084	    -11.52488414	    -12.23056372	     30.85914715	     89.95437384	      0.00000000	      0.00000000	     -3.00014963	      8.13051490	     21.18559333	     29.94845470	     89.95437384	      0.00000000	      0.00000000
      0.66000000	     -2.79836721	     -0.31593632	      1.23204915	     -0.38811738	      0.89333977	     -1.00390907	     10.67735048	      2.02848087	    -16.68056181	    -21.76321850	     -0.37983982	      9.68121925	     -2.87465892	      0.01718091	     23.75024006	      5.94944890	      5.83526866	    -66.34283055	     -1.15790083	      0.79682105	     17.49541004	     17.26864392	     -3.43316555	     -0.33495907	     -0.74335432	     -0.35788475	    -11.65003104	    -12.60453221	     31.60587476	     89.95437384	      0.00000000	      0.00000000	     -3.23573387	      7.95301369	     21.02327045	     29.12985478	     89.95437384	      0.00000000	      0.00000000
      0.67000000	     -2.88335246	     -0.27858710	      0.96435647	     -0.37957676	      0.89344279	     -1.00290538	     10.10560255	      2.08056628	    -16.81137653	    -21.61201817	     -0.37720087	      9.91332243	     -2.87130950	     -0.02389199	     24.87583183	      5.96400636	      6.36212656	    -65.54465145	     -1.14396997	      1.44818399	     17.80649805	     17.09305575	     -3.40417168	     -0.37167550	     -0.53281070	      0.02078099	    -11.75858742	    -12.66143961	     32.03740838	     89.95437384	      0.00000000	      0.00000000	     -3.76471864	      7.82507722	     20.90794867	     28.61363427	     89.95437384	      0.00000000	      0.00000000
